<?xml version="1.0" encoding="utf-8"?>
<!-- Generator: Adobe Illustrator 26.0.3, SVG Export Plug-In . SVG Version: 6.00 Build 0)  -->
<svg version="1.1" id="Layer_1" xmlns="http://www.w3.org/2000/svg" xmlns:xlink="http://www.w3.org/1999/xlink" x="0px" y="0px"
	 viewBox="0 0 138 36" style="enable-background:new 0 0 138 36;" xml:space="preserve">
<style type="text/css">
	.st0{fill:#FFFFFF;}
</style>
<path class="st0" d="M129.76,6.31l0-0.05c-0.07-0.4-0.16-0.7-0.3-0.98c-0.15-0.36-0.36-0.66-0.61-0.89
	c-0.11-0.11-0.25-0.22-0.4-0.34c-0.07-0.04-0.14-0.08-0.21-0.12c-0.07-0.04-0.14-0.08-0.22-0.12c-0.3-0.14-0.6-0.24-0.91-0.33
	c-0.29-0.05-0.59-0.11-0.85-0.11h0c-0.3-0.03-0.57-0.03-0.86-0.03c-0.27,0-0.55,0.03-0.78,0.05l-0.75,0.08
	c-0.04,0-0.08,0.01-0.11,0.02c-0.02,0-0.03,0.01-0.04,0.01c-0.06,0-0.11,0.01-0.14,0.02c-0.02,0-0.03,0.01-0.07,0.01l-0.06,0.01
	c-0.1,0.02-0.19,0.04-0.32,0.04c-0.1,0.03-0.22,0.05-0.33,0.08c-0.11,0.03-0.22,0.05-0.33,0.08c-0.77,0.16-1.51,0.36-2.41,0.67
	c-0.65,0.21-1.19,0.44-1.68,0.65l-0.33,0.14c-0.19,0.09-0.39,0.17-0.57,0.27c-0.99,0.45-2.09,1.03-3.33,1.77
	c-1.03,0.62-2.12,1.34-3.23,2.17c-1.93,1.43-3.83,3.06-5.36,4.6c-0.75,0.74-1.39,1.42-1.96,2.07l-0.32,0.37
	c-0.5,0.58-1.02,1.19-1.48,1.82l0.04,0.03c-0.07,0.09-0.13,0.17-0.19,0.25c-0.23,0.27-0.41,0.54-0.58,0.78l-0.1,0.14
	c-0.04,0.07-0.08,0.12-0.12,0.18c-0.04,0.06-0.08,0.12-0.13,0.2c-0.02,0.05-0.05,0.1-0.07,0.14c-0.03,0.05-0.05,0.1-0.09,0.15
	c-0.02,0.05-0.04,0.08-0.08,0.12l-0.2,0.38c-0.02,0.03-0.04,0.07-0.05,0.12c-0.12,0.21-0.19,0.4-0.24,0.53
	c-0.01,0.03-0.02,0.07-0.03,0.1c-0.02,0.03-0.03,0.07-0.03,0.09c-0.02,0.03-0.03,0.07-0.04,0.1c-0.01,0.03-0.02,0.06-0.03,0.08
	l-0.02,0.03c-0.02,0.12-0.05,0.2-0.07,0.28l-0.03,0.09c-0.04,0.13-0.06,0.2-0.06,0.26l0,0.12l0.11,0.03c0.05,0.01,0.1,0,0.15-0.05
	v0.05c0,0.06-0.02,0.13-0.05,0.19c-0.01,0.02-0.02,0.05-0.02,0.08l-0.02,0.07c0,0.03-0.01,0.06-0.02,0.09l-0.08,0.23
	c-0.01,0-0.01,0-0.02,0c-0.07-0.02-0.13-0.04-0.17-0.05c-0.04-0.01-0.07-0.02-0.1-0.03c-0.03,0-0.05-0.01-0.06-0.02l-0.21-0.04
	c-0.03-0.01-0.07-0.02-0.1-0.03c-0.02,0-0.05-0.01-0.05-0.02l-0.15-0.01l-0.06-0.02l-0.04-0.01c-0.07,0-0.13-0.01-0.19-0.02
	c-0.07-0.01-0.13-0.01-0.16-0.01l-0.23-0.03h-0.19c-0.21,0-0.44,0.02-0.67,0.07c0.11-0.05,0.2-0.09,0.24-0.11l0.13-0.07l-0.03-0.11
	l-0.06-0.12h-0.11c-0.04,0-0.08,0.01-0.13,0.03l-0.06,0.02c-0.04,0.01-0.09,0.03-0.12,0.03l-0.02,0.01l0-0.01
	c-0.64,0.26-1.31,0.52-1.97,0.76c-0.64,0.23-1.31,0.47-2,0.66c-0.15,0.05-0.3,0.1-0.5,0.13c-0.13,0.04-0.31,0.1-0.49,0.13
	c-0.33,0.08-0.68,0.15-1.01,0.21l-0.07,0.01c-0.31,0.05-0.6,0.09-0.94,0.1c-0.09,0.02-0.15,0.02-0.23,0.02h-0.26
	c-0.05,0-0.12,0-0.15-0.01l-0.06-0.02c-0.03,0-0.05-0.01-0.08-0.01c-0.02,0-0.03-0.01-0.05-0.01l-0.01,0l0.05-0.1
	c0.08-0.13,0.15-0.25,0.27-0.38c0.18-0.2,0.41-0.41,0.74-0.69l0.09,0c0.15-0.03,0.31-0.07,0.45-0.09c0.17-0.03,0.32-0.06,0.43-0.09
	l0.39-0.12c0.58-0.17,1.19-0.35,1.78-0.55c0.16-0.06,0.32-0.11,0.48-0.16c0.21-0.07,0.41-0.14,0.62-0.21
	c0.09-0.04,0.18-0.07,0.27-0.1c0.1-0.03,0.19-0.07,0.29-0.11c0.09-0.04,0.18-0.08,0.27-0.12c0.09-0.04,0.17-0.08,0.26-0.12
	l0.09-0.04v-0.06c0,0,0,0,0.01-0.01c0.02-0.01,0.07-0.04,0.1-0.05c0.05-0.03,0.12-0.06,0.19-0.12l0.1-0.02v-0.07
	c0.01-0.01,0.02-0.03,0.03-0.04l0.07-0.1l0.05-0.05v-0.17c0.02-0.07,0.01-0.13,0-0.16c0-0.05-0.01-0.09-0.03-0.12v-0.05l-0.04-0.04
	l-0.03-0.12h-0.08c-0.02-0.02-0.05-0.04-0.07-0.06l-0.17-0.1h-0.02c0,0,0,0,0,0v-0.05h-0.2c-0.01,0-0.03,0-0.04-0.01
	c-0.03-0.01-0.07-0.02-0.12-0.02h-0.32c-0.04,0-0.07,0.01-0.1,0.02l-0.48,0c-0.15,0.03-0.31,0.05-0.51,0.08
	c-0.29,0.07-0.6,0.15-0.91,0.27c-0.26,0.1-0.55,0.22-0.86,0.38l-0.55,0.27c-0.11,0.06-0.23,0.12-0.35,0.17
	c-0.06,0.03-0.1,0.06-0.14,0.1c-0.03,0.02-0.05,0.03-0.05,0.03c-0.14,0.08-0.27,0.16-0.37,0.24c-0.41,0.26-0.78,0.53-1.1,0.8
	L89.8,22.7c-0.1,0.09-0.19,0.17-0.28,0.25c-0.38,0.15-0.76,0.3-1.15,0.44c-0.65,0.23-1.31,0.47-2,0.66c-0.15,0.05-0.3,0.1-0.5,0.13
	c-0.18,0.06-0.35,0.1-0.49,0.13c-0.33,0.08-0.68,0.15-1.01,0.21l-0.07,0.01c-0.31,0.05-0.6,0.09-0.94,0.1
	c-0.09,0.02-0.15,0.02-0.23,0.02h-0.26c-0.05,0-0.13,0-0.15-0.01l-0.07-0.02c-0.03,0-0.05-0.01-0.08-0.01
	c-0.02,0-0.03-0.01-0.05-0.01l-0.01,0l0.05-0.1c0.08-0.13,0.15-0.25,0.27-0.37c0.18-0.2,0.41-0.41,0.74-0.69l0.08,0
	c0.16-0.03,0.31-0.07,0.45-0.09c0.17-0.03,0.33-0.06,0.43-0.09l0.4-0.12c0.58-0.17,1.18-0.35,1.77-0.55
	c0.16-0.06,0.32-0.11,0.47-0.16c0.21-0.07,0.41-0.14,0.62-0.21c0.09-0.04,0.18-0.07,0.27-0.1c0.09-0.03,0.19-0.07,0.28-0.11
	c0.09-0.04,0.18-0.08,0.27-0.12c0.09-0.04,0.17-0.08,0.26-0.12l0.09-0.04v-0.06c0,0,0.01,0,0.01-0.01c0.01-0.01,0.06-0.04,0.09-0.05
	c0.05-0.03,0.12-0.06,0.19-0.12l0.1-0.02v-0.07c0.02-0.01,0.03-0.03,0.03-0.04l0.07-0.1l0.05-0.05v-0.17c0.02-0.07,0.01-0.13,0-0.16
	c0-0.05-0.01-0.09-0.03-0.12v-0.05l-0.04-0.04l-0.03-0.12h-0.07c-0.02-0.02-0.05-0.04-0.07-0.06l-0.17-0.1h-0.02c0,0,0,0-0.01,0
	v-0.05h-0.2c-0.01,0-0.03,0-0.04-0.01c-0.03-0.01-0.07-0.02-0.12-0.02H88.4c-0.04,0-0.07,0.01-0.1,0.02l-0.48,0
	c-0.16,0.03-0.32,0.05-0.51,0.08c-0.29,0.07-0.6,0.15-0.91,0.27c-0.26,0.1-0.55,0.22-0.86,0.38L85,21.32
	c-0.11,0.05-0.23,0.12-0.35,0.17c-0.06,0.03-0.1,0.06-0.14,0.1c-0.03,0.02-0.05,0.03-0.05,0.03c-0.14,0.08-0.27,0.16-0.37,0.24
	c-0.41,0.26-0.78,0.53-1.1,0.8l-0.04,0.03c-0.17,0.15-0.33,0.28-0.47,0.45c-0.03,0.03-0.07,0.07-0.1,0.1
	c-0.08,0.02-0.15,0.05-0.23,0.07c-0.21,0.06-0.41,0.12-0.6,0.18l-0.26,0.06c-0.33,0.09-0.64,0.16-0.95,0.22l-0.6,0.1
	c-0.17,0.02-0.37,0.05-0.53,0.03c-0.1,0-0.16,0-0.22-0.02l-0.05-0.01c-0.01,0-0.03,0-0.04-0.01c0,0,0,0,0-0.01l-0.01-0.09h-0.02
	l0-0.33l-0.04-0.14l-0.03-0.15l-0.05-0.04c-0.02-0.02-0.05-0.03-0.07-0.05c-0.01-0.01-0.02-0.02-0.03-0.02
	c-0.09-0.09-0.19-0.14-0.31-0.15c-0.13-0.05-0.21-0.05-0.36,0c-0.09,0.01-0.2,0.03-0.34,0.08h-0.06l-0.03,0.03
	c-0.03,0.01-0.05,0.02-0.06,0.03c-0.02,0.01-0.04,0.01-0.05,0.02l-0.05,0.01c-0.2,0.07-0.41,0.17-0.67,0.32
	c-0.46,0.19-1.04,0.49-1.73,0.88c-0.14,0.08-0.29,0.15-0.44,0.24c-0.15,0.08-0.31,0.16-0.46,0.24c-0.03,0.02-0.06,0.04-0.09,0.06
	c0.03-0.05,0.06-0.1,0.08-0.15c0.18-0.25,0.33-0.53,0.46-0.76l0.02-0.04c0.12-0.2,0.23-0.41,0.35-0.68l0.17-0.38
	c0.02-0.05,0.04-0.09,0.06-0.13l0.09-0.21l-0.08,0.08c-0.01-0.03-0.02-0.06-0.05-0.08c-0.03-0.03-0.07-0.04-0.1-0.03l0.24-0.4
	l-0.17,0.08v-0.03c0.03-0.04,0.05-0.09,0.08-0.13c0.02-0.03,0.04-0.06,0.05-0.09l0.39-0.79l-0.68,0.68
	c-0.02,0.02-0.03,0.03-0.04,0.05l-0.01-0.01c0,0.01-0.02,0.02-0.04,0.04c-0.02,0.02-0.04,0.03-0.08,0.07
	c-0.08,0.11-0.16,0.21-0.24,0.29c-0.05,0.06-0.1,0.12-0.14,0.17c-0.17,0.25-0.34,0.5-0.51,0.75c-0.27,0.12-0.57,0.23-0.86,0.33
	l-0.18,0.06c-0.39,0.1-0.79,0.21-1.18,0.29c-0.84,0.17-1.61,0.26-2.35,0.29l-0.04,0c-0.4,0.03-0.78,0.05-1.16,0.02
	c-0.1,0-0.21-0.01-0.3-0.01c-0.1-0.01-0.19-0.02-0.26-0.01c-0.21-0.03-0.39-0.05-0.56-0.08c-0.05-0.01-0.1-0.03-0.14-0.04
	c-0.05-0.01-0.09-0.03-0.14-0.04l-0.24-0.08c-0.02-0.01-0.06-0.02-0.09-0.03v-0.37l-0.03-0.03c0-0.03-0.01-0.06-0.03-0.1
	c-0.01-0.05-0.03-0.09-0.06-0.1c-0.02-0.05-0.05-0.1-0.09-0.13l-0.13-0.12c-0.09-0.06-0.17-0.09-0.28-0.12
	c-0.05-0.03-0.11-0.04-0.16-0.04l-0.03-0.02h-0.38c-0.05,0-0.12,0-0.19,0.03c-0.17,0-0.43,0.06-0.77,0.13
	c-0.34,0.08-0.75,0.19-1.22,0.33c-0.06,0.03-0.12,0.05-0.18,0.07c-0.04,0.01-0.09,0.03-0.13,0.05c-0.02,0-0.03,0-0.05,0.01
	c0,0,0-0.01,0.01-0.01c0.03-0.06,0.05-0.11,0.07-0.17c0.02-0.05,0.04-0.1,0.06-0.15l0.03-0.05l0.02-0.17c0-0.05,0-0.12-0.03-0.19
	c-0.01-0.08-0.05-0.15-0.12-0.2c-0.03-0.05-0.07-0.07-0.11-0.1l-0.04-0.03c-0.11-0.06-0.24-0.12-0.38-0.12c-0.14,0-0.28,0-0.39,0.03
	h-0.11l-0.09,0.03c-0.03,0-0.07,0.01-0.1,0.02l-0.05,0.01c-0.03,0.01-0.07,0.02-0.1,0.02c-0.05,0.01-0.09,0.02-0.13,0.03
	c-0.26,0.07-0.54,0.17-0.85,0.29c-0.51,0.17-1.04,0.38-1.57,0.61c-0.54,0.23-1.03,0.44-1.44,0.62c-0.3,0.14-0.56,0.25-0.76,0.33
	l-0.14,0.07c0.09-0.11,0.18-0.22,0.27-0.33l-0.03-0.02c0.15-0.16,0.28-0.3,0.34-0.37c0.33-0.38,0.42-0.48,0.31-0.6
	c-0.03-0.03-0.05-0.05-0.09-0.05c0,0,0,0,0.01-0.01l0.72-0.82l-0.28,0.19c0.07-0.07,0.14-0.14,0.19-0.21l-0.02-0.02
	c0.01-0.02,0.01-0.03,0.01-0.05v-0.41l-0.26,0.32c0,0.01-0.01,0.02-0.02,0.02l-0.01,0.01c-0.02,0.02-0.04,0.03-0.06,0.05l-0.01-0.01
	c-0.03,0.03-0.08,0.07-0.14,0.11l-0.09,0.07c-0.09,0.09-0.19,0.17-0.28,0.26h0l-0.01,0.02c-0.01,0.01-0.02,0.02-0.03,0.03
	c-0.01,0-0.01,0-0.02,0.01l0,0c-0.01,0-0.02,0.01-0.03,0.02c-0.01,0.01-0.02,0.02-0.04,0.02l-0.13,0.07l0.01,0.03l-0.03-0.03
	c-0.5,0.34-1,0.68-1.52,1.03c-0.51,0.31-1.04,0.63-1.57,0.89c-0.26,0.13-0.52,0.26-0.8,0.36c-0.29,0.12-0.59,0.19-0.76,0.22
	c-0.04,0-0.08,0-0.14,0.03l-0.44,0c-0.01,0-0.02-0.01-0.03-0.01c-0.01-0.01-0.02-0.02-0.03-0.02c0,0-0.01-0.01-0.02-0.01
	c0,0,0-0.01-0.01-0.02c-0.01-0.01-0.01-0.02-0.02-0.03c0-0.01-0.01-0.03-0.02-0.04l-0.02-0.07c-0.01-0.02-0.01-0.09-0.01-0.12
	c0-0.05,0-0.15,0.03-0.32c0-0.09,0.04-0.24,0.08-0.4l0.02-0.09c0.05-0.21,0.11-0.37,0.18-0.57c0.16-0.5,0.01-0.86-0.46-1.08
	l-0.09-0.03c-0.09-0.02-0.22,0-0.34,0.03c-0.01-0.04-0.01-0.09-0.02-0.14c-0.01-0.11-0.02-0.23-0.06-0.34
	c0-0.05-0.02-0.08-0.03-0.08V21.7l-0.03-0.03v-0.14h-0.05l-0.02-0.02v-0.02l-0.11-0.11c-0.09-0.11-0.21-0.21-0.33-0.27
	c-0.14-0.09-0.29-0.12-0.43-0.12c-0.14-0.03-0.29,0-0.38,0.02h-0.08c-0.04,0-0.08,0.02-0.08,0.02l-0.16,0.05
	c-0.07,0.01-0.14,0.03-0.19,0.07c-0.01,0-0.02,0.01-0.03,0.01c-0.03,0.01-0.09,0.02-0.1,0.05c-0.03,0.02-0.07,0.04-0.1,0.05
	c-0.05,0.02-0.09,0.05-0.12,0.07c-0.15,0.08-0.32,0.19-0.47,0.3c-0.29,0.22-0.57,0.46-0.8,0.72c-0.26,0.24-0.47,0.52-0.67,0.8
	c-0.31,0.1-0.62,0.2-0.92,0.27l-0.15,0.04c-0.26,0.07-0.5,0.13-0.77,0.17c-0.33,0.08-0.61,0.13-0.92,0.15
	c-0.12,0.02-0.27,0.02-0.42,0.02c-0.11,0-0.21,0-0.33-0.02v-0.03h-0.12l-0.01-0.03H42.8v-0.09l0.03-0.07l0.04-0.17
	c0-0.02,0-0.02,0.02-0.06c0.03-0.1,0.03-0.2,0.03-0.28c0-0.06,0-0.15-0.03-0.26l-0.03-0.06c0-0.01-0.01-0.02-0.02-0.03
	c-0.01-0.07-0.05-0.11-0.07-0.14c-0.04-0.06-0.09-0.12-0.16-0.15v-0.21l-0.06,0.18c-0.2-0.14-0.43-0.2-0.72-0.12h-0.17l-0.03,0.03
	c-0.19,0.05-0.37,0.1-0.54,0.16c-0.33,0.14-0.62,0.27-0.93,0.42c-0.27,0.12-0.56,0.28-0.85,0.45c-0.58,0.32-1.15,0.67-1.69,1.01
	c-0.33,0.21-0.67,0.41-1.02,0.64l0.15-0.19c1.23-1.57,9.8-12.09,12.08-14.83c0.04-0.08,0.11-0.15,0.2-0.24
	c0.32-0.4,0.67-0.82,1.01-1.25c0.9,0.1,1.81,0.19,2.73,0.28l0.25,0.02c1.08,0.1,2.15,0.2,3.2,0.29c0.67,0.06,1.4,0.12,2.14,0.19
	l0.58,0.05c0.72,0.06,1.45,0.11,2.12,0.15l1.51,0.1L62.3,9.46c0.12,0,0.24,0,0.36-0.01c0.22,0,0.46-0.01,0.69-0.02
	c1.05-0.03,1.37-0.07,1.47-0.13c0.5,0,1.08,0,1.57-0.03c0.55-0.03,0.9-0.07,1.04-0.12v0c0.07-0.03,0.15-0.05,0.32-0.08
	c0.16-0.05,0.37-0.1,0.66-0.16c0.03-0.01,0.06-0.02,0.1-0.02c0.04-0.01,0.08-0.01,0.12-0.02c0.05,0,0.09,0,0.15-0.03
	c0.03,0,0.05-0.01,0.07-0.02l0.04-0.01c0.14-0.02,0.31-0.06,0.48-0.1l0.16-0.03c0.21-0.05,0.48-0.13,0.75-0.21
	c0.04-0.02,0.08-0.03,0.11-0.04c0.03-0.01,0.06-0.03,0.1-0.04c0.09-0.03,0.17-0.06,0.21-0.08c0.18-0.06,0.31-0.12,0.46-0.19
	c0.32-0.14,0.56-0.27,0.74-0.41c0.12-0.09,0.23-0.2,0.31-0.3c0.09-0.09,0.18-0.21,0.25-0.36c0.01-0.05,0.03-0.1,0.05-0.14
	c0.02-0.06,0.04-0.12,0.06-0.21c0-0.05,0.01-0.09,0.01-0.14c0.01-0.06,0.02-0.12,0.02-0.18V6.37C72.54,6.14,72.52,6,72.5,5.94
	c-0.01-0.06-0.02-0.11-0.05-0.15V5.46l-0.07,0.28c0,0-0.01,0-0.01,0L72.28,5.7l-0.07,0.06c-0.07,0.07-0.05,0.16-0.03,0.21v0.05
	c0,0.04,0.02,0.08,0.03,0.08v0.24c0,0.02,0,0.05,0,0.07l-0.05,0.18c-0.02,0.1-0.05,0.18-0.07,0.26c-0.02,0.06-0.07,0.13-0.12,0.2
	c-0.05,0.07-0.1,0.15-0.17,0.22c-0.05,0.05-0.12,0.12-0.19,0.17c-0.16,0.12-0.34,0.22-0.55,0.33c-0.21,0.08-0.44,0.16-0.68,0.24
	c-0.42,0.15-0.89,0.22-1.33,0.3L68.98,8.3c-0.49,0.08-0.99,0.16-1.49,0.19c-0.89,0.07-1.88,0.09-3.04,0.1
	c-1-0.03-2.04-0.05-3.06-0.1c-1.76-0.09-3.65-0.25-6.13-0.5c-1.56-0.16-3.01-0.33-4.4-0.5c0.67-0.82,1.32-1.61,1.83-2.27
	c0.45-0.58,0.9-1.19,1.34-1.8l-0.02-0.02c0.24-0.31,0.43-0.56,0.52-0.69c0.65-0.82,0.65-0.82,0.53-0.92
	C55.05,1.77,55.02,1.75,55,1.75c0.02-0.03,0.05-0.06,0.07-0.09l-0.04-0.04c0.41-0.53,0.52-0.69,0.52-0.78
	c0.04-0.05,0.09-0.1,0.13-0.15c0.15-0.18,0.3-0.35,0.43-0.51L55.88,0l-0.03,0.03l-0.02-0.02c-0.01,0.01-0.02,0.03-0.03,0.04
	c-0.01,0.01-0.02,0.03-0.03,0.03l-0.05,0.05c-0.02,0.03-0.04,0.06-0.07,0.09L55.6,0.28c-0.09,0.09-0.19,0.18-0.27,0.3
	c-0.17,0.19-0.34,0.36-0.49,0.53c-0.29,0.31-0.55,0.58-0.7,0.79c-1.55,1.86-3.08,3.72-4.49,5.43c-0.2-0.03-0.4-0.05-0.6-0.08
	c-0.7-0.08-2.37-0.29-4.71-0.58c-0.65-0.09-1.35-0.18-2.09-0.28c-0.54-0.07-1.1-0.14-1.68-0.22C40.29,6.14,40,6.1,39.71,6.06
	c-0.4-0.05-0.81-0.11-1.21-0.15c-0.15-0.03-0.33-0.05-0.53-0.08c-0.1-0.02-0.19-0.02-0.27-0.03c-0.08-0.01-0.16-0.01-0.25-0.03
	c-0.37-0.05-0.74-0.1-1.11-0.13c-2.7-0.29-5.72-0.43-8.5-0.37c-1.2,0.05-2.45,0.1-3.49,0.18c-0.27,0.03-0.5,0.05-0.72,0.08h-0.19
	l-0.07,0.02c-0.02,0.01-0.05,0.01-0.13,0.02c-0.09,0.02-0.18,0.02-0.3,0.02c-0.21,0.02-0.43,0.05-0.61,0.08
	c-0.13,0.02-0.32,0.05-0.5,0.05L21.37,5.8c-1.58,0.22-3.02,0.5-4.31,0.83c-0.02,0.01-0.05,0.01-0.07,0.01l-0.07,0.02
	c-0.01,0.01-0.03,0.01-0.04,0.01c-0.03,0.01-0.06,0.02-0.09,0.03c-0.03,0.01-0.06,0.01-0.09,0.02c-0.06,0.01-0.11,0.02-0.15,0.03
	c-0.11,0.03-0.19,0.05-0.29,0.09c-0.02,0.01-0.05,0.01-0.07,0.01l-0.07,0.02c-0.02,0.01-0.03,0.02-0.05,0.02
	c-0.03,0.01-0.05,0.02-0.06,0.02c-0.18,0.05-0.33,0.1-0.49,0.15c-0.04,0-0.07,0.02-0.1,0.03l-0.06,0.02
	c-0.02,0.01-0.03,0.01-0.05,0.02c-0.02,0.01-0.05,0.02-0.07,0.03l-0.23,0.08c-0.34,0.1-0.67,0.21-0.96,0.32
	c-0.08,0.03-0.17,0.06-0.2,0.08l-0.25,0.08c-0.07,0.03-0.14,0.06-0.21,0.1c-0.06,0.03-0.12,0.06-0.19,0.09l-0.48,0.19L12.3,8.31
	l-0.09,0.02l-0.1,0.06c-0.1,0.04-0.19,0.09-0.28,0.14l-0.12,0.06c-0.46,0.26-0.95,0.53-1.42,0.84l0.03,0.05
	c-0.06,0.04-0.12,0.08-0.19,0.12c-0.02,0.02-0.06,0.06-0.09,0.08l-0.04,0.03C9.99,9.72,9.96,9.74,9.93,9.77L9.9,9.8
	C9.81,9.86,9.73,9.92,9.65,9.99c-0.13,0.11-0.27,0.22-0.35,0.29c-0.22,0.19-0.38,0.38-0.53,0.56c-0.06,0.09-0.11,0.16-0.15,0.22
	c-0.03,0.05-0.06,0.09-0.09,0.13c-0.02,0.03-0.03,0.05-0.05,0.07l-0.04,0.06v0.03L8.21,11.6h0.35c0.02,0,0.06,0,0.11-0.03
	c-0.05,0.07-0.08,0.15-0.1,0.22c-0.02,0.04-0.02,0.08-0.02,0.09v0.26c-0.02,0.12-0.02,0.23,0,0.36v0.28l0.05-0.16l0.01,0.06
	l0.04,0.04v0.06l0.16,0.17h0.06c0,0,0.01,0,0.02,0c0,0,0.01,0.01,0.01,0.01c0.01,0.01,0.02,0.02,0.03,0.03
	c0.08,0.08,0.2,0.17,0.32,0.24c0.02,0.02,0.05,0.03,0.07,0.04c0.05,0.03,0.11,0.06,0.17,0.08c0,0,0.01,0,0.01,0
	c0.05,0.02,0.09,0.04,0.14,0.07l0.05,0.03h0.05c0,0,0,0,0,0l0.02,0.02h0.05l0.03,0.03h0.11l0-0.15v-0.14c0,0,0,0,0,0l0-0.02
	c0,0,0,0-0.01,0l0-0.01c-0.07-0.02-0.12-0.05-0.18-0.08c-0.03-0.01-0.06-0.03-0.09-0.04v0c-0.14-0.07-0.31-0.19-0.42-0.3
	c-0.03-0.05-0.07-0.08-0.1-0.11c0,0,0-0.01,0-0.01c-0.01-0.03-0.03-0.07-0.05-0.1c-0.01-0.02-0.01-0.03-0.02-0.05
	c0-0.03-0.01-0.05-0.02-0.09c0-0.03,0-0.07,0.01-0.09l0.02-0.07c0-0.03,0.03-0.08,0.04-0.11l0.03-0.06
	c0.05-0.13,0.14-0.25,0.23-0.36c0.06-0.05,0.1-0.11,0.15-0.17c0.04-0.05,0.09-0.1,0.14-0.16c0.14-0.15,0.3-0.31,0.54-0.48
	c0.1-0.08,0.21-0.16,0.27-0.23l0.31-0.23c0.44-0.26,0.89-0.52,1.35-0.75c0.14-0.05,0.27-0.11,0.38-0.16
	c0.03-0.02,0.07-0.03,0.1-0.06c0.03-0.02,0.06-0.03,0.07-0.04l0.18-0.08c0.07-0.03,0.13-0.05,0.19-0.08
	c0.06-0.03,0.12-0.05,0.17-0.08l1.14-0.42c0.06-0.03,0.12-0.04,0.18-0.06c0.06-0.02,0.12-0.04,0.17-0.07l0.24-0.06
	c0.05-0.02,0.1-0.05,0.16-0.07c0.9-0.28,1.97-0.59,3.13-0.82c0.96-0.22,2-0.41,3.18-0.58l0.12-0.02V7.03
	c0.27-0.05,0.53-0.08,0.78-0.1c0.03,0,0.08-0.01,0.12-0.02c0.12-0.02,0.19,0,0.3-0.04c0.12,0,0.24,0,0.34-0.03
	c0.07,0,0.14,0,0.21-0.01c0.12-0.01,0.22-0.01,0.36-0.03c0.06,0,0.12-0.01,0.22-0.02c0.12-0.02,0.24-0.02,0.39-0.03l0.07-0.01
	c0.12-0.02,0.23-0.04,0.33-0.04c0.05,0,0.08-0.02,0.09-0.03l1.33-0.08c0.21,0,0.46,0,0.68-0.03h0.69c1.81-0.05,3.46-0.05,5.01,0.02
	l0.09,0V6.57l0,0.03c0.02,0,0.03,0,0.1,0.01c0.34,0,0.73,0.02,1.14,0.05l0.81,0.09c0.07,0,0.13,0.01,0.19,0.02
	c0.07,0,0.13,0.01,0.18,0.01c0.07,0,0.11,0,0.16,0.02L35.2,6.8l0.18,0c0.07,0.02,0.15,0.02,0.24,0.03c0.07,0,0.14,0.01,0.24,0.02
	h0.15c0.1,0,0.22,0,0.34,0.03c0.05,0,0.09,0.01,0.14,0.01c0.06,0.01,0.12,0.02,0.15,0.02l0.58,0.08C37.31,7,37.4,7,37.48,7.01
	c0.08,0.01,0.15,0.01,0.24,0.03l0.45,0.05c0.15,0.01,0.31,0.03,0.47,0.05c0.16,0.02,0.32,0.04,0.47,0.05l2.5,0.31
	c0.85,0.1,1.72,0.2,2.57,0.31c-0.01,0.01-0.02,0.02-0.03,0.03c-0.05,0.05-0.1,0.1-0.13,0.13L44,7.96c-1.8,1.95-3.56,3.9-5.27,5.8
	c-1.71,1.89-3.42,3.73-5.32,5.77l-0.07,0.07c-1.99,2.16-3.83,4.11-5.46,5.8l-0.98,0.99c-0.99,0.99-1.92,1.93-2.79,2.75
	c-1.29,1.26-2.34,2.19-2.72,2.52c-0.05,0.03-0.09,0.07-0.13,0.11c-0.02,0.03-0.05,0.05-0.1,0.09c-0.03,0.03-0.07,0.07-0.11,0.1
	c-0.04,0.03-0.07,0.06-0.11,0.1c-0.12,0.06-0.2,0.15-0.26,0.21c-0.05,0.03-0.09,0.07-0.14,0.12c-0.04,0.03-0.08,0.07-0.12,0.1
	c-0.05,0.03-0.09,0.07-0.15,0.11c-0.03,0.03-0.08,0.07-0.13,0.11c-0.15,0.13-0.34,0.26-0.52,0.39c-0.09,0.07-0.18,0.12-0.27,0.18
	c-0.09,0.06-0.19,0.12-0.27,0.18c-0.76,0.49-1.5,0.87-2.12,1.07l-0.03,0.02c-0.03,0.01-0.05,0.02-0.06,0.03l-0.21,0.07h-0.17v0.05
	c-0.04,0.02-0.1,0.03-0.12,0.03l-0.71,0.13l-0.24,0.03H15.2l-0.01,0.06c-0.04,0-0.08,0-0.12-0.01c-0.02,0-0.04,0-0.07-0.01
	c-0.04-0.01-0.09-0.02-0.12-0.02h-0.05c-0.04-0.02-0.15-0.02-0.2-0.04l-0.15-0.02c-0.06-0.02-0.12-0.04-0.17-0.06l-0.07-0.02
	l-0.06-0.02l-0.03,0l-0.03-0.03h-0.06c-0.01,0-0.03-0.01-0.05-0.01c-0.02,0-0.03-0.01-0.05-0.01l-0.03-0.03l-0.07-0.02
	c-0.09-0.02-0.21-0.05-0.27,0.05c-0.02,0.04-0.04,0.11,0.03,0.19l-0.03-0.01c0,0,0-0.01-0.01-0.01l-0.02-0.04h-0.06
	c-0.02-0.01-0.05-0.03-0.1-0.03c0,0,0,0,0,0h0l-0.01,0.08c-0.02-0.01-0.03-0.02-0.05-0.03c-0.13-0.07-0.23-0.14-0.31-0.2
	c-0.07-0.05-0.12-0.09-0.17-0.11c-0.04-0.04-0.11-0.1-0.19-0.09l-0.01-0.01c-0.05-0.05-0.09-0.1-0.13-0.15
	c-0.01-0.01-0.02-0.02-0.03-0.03c-0.02-0.03-0.05-0.06-0.07-0.08c-0.01-0.01-0.01-0.02-0.02-0.03c-0.02-0.03-0.04-0.05-0.06-0.07
	c0,0,0-0.01-0.01-0.01c-0.02-0.03-0.03-0.05-0.05-0.07l-0.02-0.02c-0.01-0.01-0.02-0.02-0.03-0.03c-0.01-0.01-0.02-0.03-0.03-0.05
	l-0.03-0.12h-0.06l-0.23-0.21v0.35l0.03,0.15h0.03c0.02,0.04,0.03,0.09,0.07,0.12c0.02,0.02,0.03,0.05,0.05,0.07l-0.02,0.02
	c0.03,0.04,0.06,0.08,0.09,0.13c0.06,0.09,0.13,0.18,0.21,0.27c0.26,0.29,0.54,0.53,0.77,0.66c0.02,0.02,0.05,0.05,0.1,0.07
	l0.01,0.07l0.09,0l0.03,0.02c0.03,0.01,0.07,0.03,0.1,0.04c0.03,0.01,0.06,0.02,0.08,0.03l0.14,0.07c0.02,0.02,0.05,0.03,0.06,0.03
	l0.14,0.06c0.39,0.14,0.77,0.22,1.16,0.24c0.16,0.02,0.32,0.03,0.46,0.03c0.27,0,0.51-0.03,0.71-0.05l0.14-0.03h0.13l0.29-0.08h0.06
	c0.05,0,0.08-0.02,0.1-0.03l0.16-0.03l0.1-0.04c0.05,0,0.1-0.01,0.15-0.03l0.27-0.08l1.03-0.44c0.07-0.05,0.14-0.09,0.22-0.11
	l0.28-0.15c0.03-0.02,0.07-0.04,0.1-0.06c0.04-0.02,0.09-0.04,0.13-0.07l0.69-0.43l0.12-0.09c0.01-0.01,0.02-0.02,0.03-0.02
	c0.03-0.02,0.05-0.03,0.05-0.04c0.22-0.14,0.41-0.29,0.6-0.43c0.09-0.07,0.18-0.14,0.28-0.21c0.13-0.1,0.27-0.21,0.39-0.34
	l0.22-0.17l0.5-0.44h-0.07c0.18-0.16,0.35-0.31,0.52-0.45c0.27-0.22,0.55-0.45,0.82-0.73l0.04-0.04v-0.02
	C23.78,31.19,24,31,24.21,30.8c0.2-0.19,0.41-0.37,0.63-0.56c0.79-0.76,1.55-1.52,2.32-2.32l-0.06-0.06l0.06,0.04
	c0-0.01,0.01-0.02,0.03-0.03c0.16-0.17,0.35-0.36,0.55-0.56c0.21-0.21,0.43-0.43,0.65-0.67c0.06-0.06,0.14-0.14,0.19-0.21
	c0.03-0.03,0.06-0.07,0.08-0.1c0.2-0.2,0.38-0.38,0.56-0.53c1.93-2.07,3.98-4.33,6.64-7.33c0.16-0.19,0.31-0.37,0.47-0.56
	c0.32-0.37,0.63-0.75,0.95-1.1c0.51-0.56,1.13-1.22,1.68-1.82l0.86-0.92h-0.11c0.12-0.16,0.31-0.4,0.46-0.58l0.05-0.06
	c0.07-0.09,0.13-0.18,0.19-0.27c0.23-0.32,0.33-0.46,0.33-0.55c0.11-0.12,0.22-0.24,0.34-0.37c0.7-0.76,0.75-0.83,0.75-0.91
	c0.02-0.13,0.23-0.55,1.44-1.98c0.28-0.33,0.7-0.78,1-1.1c0.15-0.16,0.27-0.3,0.34-0.37c0.02,0,0.04,0,0.05,0
	c0.06,0.01,0.12,0.02,0.16,0.02c1.23,0.15,2.57,0.31,3.98,0.47c-0.18,0.22-0.36,0.44-0.54,0.66l-0.08,0.1l0.03,0.03
	c-0.24,0.3-0.47,0.56-0.7,0.82c-0.23,0.27-0.48,0.55-0.73,0.86l-0.03,0.04v0.08c-0.39,0.46-0.8,0.93-1.23,1.41
	c-0.77,0.95-1.53,1.9-2.27,2.82l-0.18,0.23h0.03c-0.13,0.16-0.28,0.34-0.44,0.53c-0.21,0.25-0.43,0.51-0.63,0.78
	c-0.05,0.04-0.09,0.1-0.12,0.15c-0.03,0.04-0.05,0.08-0.09,0.12c-0.05,0.05-0.08,0.1-0.09,0.14c-0.19,0.22-0.37,0.43-0.53,0.63
	l-0.87,1.1c-1.76,2.21-3.58,4.5-5.49,6.93c-0.08,0.09-0.12,0.2-0.15,0.34v0.26c0,0.05,0.02,0.1,0.06,0.18
	c0.02,0.09,0.09,0.16,0.12,0.19c0.03,0.03,0.06,0.05,0.08,0.05c0.06,0.07,0.13,0.07,0.15,0.07h0.04c0.02,0.01,0.04,0.01,0.06,0.01
	c0.02,0,0.04,0,0.06-0.01h0.2v-0.07l0.02-0.01c0.64-0.46,1.31-0.94,2-1.37c1.17-0.76,2.39-1.45,3.27-1.86l0.6-0.28h-0.21
	c0.17-0.09,0.39-0.19,0.61-0.26c0.08,0,0.13-0.03,0.19-0.05l0.03-0.01c0.04,0,0.09-0.01,0.12-0.02c0.02,0,0.03-0.01,0.04-0.01
	c0.01,0,0.02,0.01,0.04,0.01c0.04,0.01,0.05,0.02,0.06,0.02l0.05,0.08c0.02,0.05,0.02,0.12,0.02,0.14v0.1l-0.02,0.04l0,0.04
	l-0.03,0.05v0.05c-0.02,0.02-0.02,0.06-0.03,0.1l-0.03,0.02v0.14c0,0.1,0.03,0.22,0.08,0.32c0.06,0.09,0.14,0.15,0.23,0.2
	c0.02,0.02,0.05,0.04,0.09,0.05c0.02,0.02,0.05,0.03,0.08,0.03c0.03,0.02,0.07,0.02,0.09,0.03c0.05,0.03,0.1,0.03,0.13,0.03h0.05
	l0.02,0.03H43c0.14,0,0.23,0,0.29-0.03c0.02,0,0.03-0.01,0.05-0.02h0.02c0.05,0,0.09-0.02,0.12-0.03l0.14-0.03
	c0.08-0.02,0.18-0.04,0.3-0.07c0.35-0.07,0.99-0.2,1.99-0.53l0.22-0.06c0.05-0.02,0.12-0.03,0.17-0.05
	c-0.03,0.06-0.07,0.12-0.1,0.19l-0.02,0.05c-0.03,0.08-0.07,0.17-0.06,0.25c-0.03,0.11-0.06,0.24-0.03,0.43l0,0.05l0.03,0.03
	c0.03,0.11,0.06,0.24,0.14,0.33c0.07,0.14,0.19,0.23,0.33,0.33c0.1,0.05,0.19,0.08,0.28,0.1l0.04,0.04h0.1l0.03,0.03h0.22
	c0.12,0,0.24-0.03,0.35-0.05c0.05-0.01,0.1-0.02,0.18-0.04c0.07-0.03,0.14-0.05,0.21-0.08c0.07-0.02,0.14-0.05,0.22-0.08
	c0.03-0.02,0.07-0.03,0.1-0.05c0.09-0.04,0.18-0.09,0.26-0.14c0.05-0.03,0.12-0.06,0.17-0.1c0.06-0.03,0.12-0.06,0.17-0.09
	l0.55-0.27h-0.15c0.11-0.07,0.23-0.15,0.34-0.23c0.07-0.04,0.12-0.08,0.14-0.11v0c0.14-0.08,0.24-0.16,0.35-0.24
	c0.04-0.03,0.08-0.06,0.12-0.1c0.07-0.05,0.13-0.11,0.21-0.16l0.03-0.03c0.02-0.02,0.03-0.03,0.05-0.05l-0.06,0.3
	c-0.01,0.05-0.02,0.09-0.03,0.14c-0.02,0.11-0.05,0.24-0.05,0.36c-0.03,0.17-0.03,0.37,0,0.57l0.01,0.05l0.02,0.02
	c0,0.05,0.01,0.08,0.02,0.11l0.03,0.14l0.06,0.1c0.04,0.07,0.09,0.15,0.16,0.22c0.09,0.09,0.17,0.15,0.26,0.2l0.09,0.03
	c0.03,0.03,0.06,0.04,0.12,0.04c0.03,0.01,0.05,0.02,0.08,0.02c0.02,0,0.03,0.01,0.05,0.02l0.35,0.02c0.05,0,0.09-0.01,0.13-0.03
	c0.05,0,0.12,0,0.18-0.03c0.1,0,0.17-0.03,0.25-0.05c0.04,0,0.07-0.01,0.1-0.02c0.05,0,0.09-0.01,0.13-0.03l0.04-0.01
	c0.53-0.17,1.13-0.41,1.55-0.61l0.24-0.12l0.02-0.01l-0.09-0.04c0.04-0.03,0.09-0.07,0.12-0.09l0.13-0.09
	c0.23-0.17,0.35-0.26,0.38-0.34c0.03-0.02,0.08-0.05,0.12-0.07c-0.1,0.1-0.2,0.21-0.3,0.31l-0.24,0.24l-0.07,0.09c0,0,0,0,0,0
	l-0.07,0.02v0.08c-0.01,0.01-0.02,0.03-0.02,0.05c-0.03,0.07-0.06,0.12-0.05,0.14c-0.03,0.13-0.03,0.24,0,0.34l0,0.03l0.02,0.03
	c0.01,0.03,0.02,0.06,0.03,0.09l0.03,0.04c0,0,0.01,0.01,0.01,0.02l0.12,0.14c0.03,0.03,0.06,0.05,0.08,0.05l0.02,0.04h0.06
	c0.02,0.01,0.07,0.03,0.13,0.03h0.19c0.03,0,0.07,0,0.12-0.03h0.04l0.23-0.14l0.33-0.14c0.36-0.18,0.74-0.36,1.16-0.55l0.08-0.04
	v-0.05c0.15-0.07,0.3-0.13,0.45-0.19c0.22-0.09,0.45-0.18,0.69-0.3l0.04-0.03c0.11-0.04,0.22-0.09,0.33-0.14
	c0.21-0.09,0.43-0.19,0.65-0.27c0.62-0.26,1.26-0.52,1.89-0.73l0.21-0.08l-0.01-0.02c0.04-0.01,0.09-0.03,0.14-0.04l0.17-0.05
	c0.06-0.02,0.12-0.04,0.17-0.06c-0.03,0.05-0.07,0.11-0.12,0.17l-0.09,0.18l-0.01,0.03c-0.02,0.02-0.04,0.06-0.05,0.11
	c-0.06,0.12-0.06,0.22-0.06,0.27v0.19l0.01,0.05c0.03,0.09,0.1,0.19,0.17,0.27c0.02,0.03,0.05,0.04,0.07,0.05
	c0.02,0.02,0.05,0.03,0.09,0.04l0.03,0.03h0.27l0.38-0.12c0.09-0.05,0.19-0.07,0.3-0.1c0.05-0.02,0.1-0.04,0.13-0.07
	c0.03-0.02,0.05-0.03,0.09-0.04c0.23-0.08,0.46-0.15,0.73-0.24c0.24-0.08,0.47-0.15,0.72-0.23c0.11-0.02,0.23-0.05,0.35-0.08
	c0.13-0.03,0.26-0.05,0.35-0.08h0.19l0.03,0.02l0.04-0.04h0.13c0.02,0.01,0.03,0.02,0.06,0.02l0,0.28l0.06,0.18
	c0.01,0.04,0.03,0.07,0.07,0.09c0.04,0.07,0.09,0.14,0.16,0.19v0.02l0.13,0.07l0.04,0.02c0,0,0,0,0,0c0.02,0.01,0.04,0.02,0.06,0.03
	L66,24.61c0.02,0.01,0.05,0.03,0.08,0.03c0.02,0.01,0.04,0.02,0.07,0.02c0.14,0.05,0.25,0.08,0.37,0.1
	c0.15,0.04,0.27,0.06,0.35,0.05c0.07,0.02,0.13,0.02,0.18,0.03c0.05,0.01,0.1,0.01,0.18,0.03c0.34,0.02,0.75,0.05,1.11,0.05
	c0.27,0.02,0.54,0.01,0.77,0.01c0.11,0,0.22-0.01,0.32-0.01h0.35l-0.09-0.09c0.04-0.01,0.09-0.02,0.12-0.03
	c0.1-0.02,0.21-0.04,0.3-0.07c0.41-0.06,0.56-0.12,0.63-0.17c0.07-0.01,0.14-0.02,0.22-0.03c0.12-0.02,0.23-0.04,0.35-0.05
	l0.14-0.03c0.2-0.04,0.31-0.07,0.35-0.14c0.01-0.01,0.03-0.02,0.07-0.03l0.05-0.02c0.05-0.03,0.1-0.05,0.19-0.08
	c0.09-0.05,0.25-0.1,0.41-0.15c0.1-0.04,0.21-0.09,0.34-0.13c0.11-0.04,0.22-0.08,0.33-0.13c0.09-0.02,0.2-0.06,0.32-0.1
	c-0.07,0.1-0.14,0.19-0.2,0.29c-0.07,0.11-0.14,0.22-0.22,0.32c-0.08,0.11-0.16,0.25-0.24,0.38c-0.13,0.21-0.26,0.42-0.41,0.62
	l-0.17,0.23h0.12v0.02c0,0.04,0,0.04-0.01,0.07l-0.02,0.07c0,0.04,0,0.07-0.01,0.09l-0.02,0.06c0,0.12,0.04,0.31,0.16,0.46
	l0.05,0.05h0.07c0,0,0,0.01,0.01,0.01l-0.01,0.1h0.14c0.02,0.01,0.04,0.02,0.08,0.02c0.06,0.03,0.13,0.03,0.18,0.03
	c0.06,0,0.12,0,0.24-0.03l0.05-0.02c0.29-0.19,0.59-0.37,0.98-0.58c0.15-0.1,0.32-0.2,0.48-0.28l0.08-0.04v-0.02
	c0.12-0.09,0.3-0.18,0.48-0.27c0.06-0.02,0.1-0.06,0.14-0.09l0.01-0.01c0.03-0.02,0.06-0.03,0.09-0.05
	c0.05-0.03,0.09-0.05,0.17-0.08c0.44-0.26,0.89-0.52,1.44-0.81c0.12-0.05,0.25-0.11,0.38-0.17c0.11-0.05,0.23-0.11,0.34-0.16
	c0.04,0,0.06-0.02,0.09-0.03c0.02,0,0.03-0.01,0.05-0.02v0.06c0,0.05,0.02,0.08,0.03,0.08l0.03,0.19l0.03,0.03v0.14h0.08l0.04,0.06
	c0.06,0.06,0.15,0.15,0.24,0.18c0.16,0.1,0.33,0.15,0.47,0.15c0.53,0.1,1.12,0,1.35-0.05l0.09-0.02l0.03-0.06
	c0.03-0.01,0.07-0.03,0.12-0.05c0.06-0.01,0.1-0.03,0.16-0.06c0.02-0.01,0.03-0.01,0.04-0.02c0.03-0.01,0.07-0.02,0.1-0.05
	c0.01,0,0.02,0,0.03-0.01c0.02-0.01,0.05-0.02,0.09-0.05c0.03-0.02,0.07-0.04,0.09-0.08H81c0.1-0.02,0.2-0.04,0.29-0.06
	c0.14-0.06,0.19-0.07,0.19-0.07l0.14,0.03v-0.14c0,0,0.02-0.03,0.15-0.11c0.02-0.02,0.06-0.04,0.12-0.06
	c-0.02,0.03-0.04,0.06-0.06,0.1l-0.05,0.09c-0.05,0.1-0.11,0.22-0.14,0.38c-0.03,0.06-0.03,0.13-0.03,0.16v0.13
	c0,0.11,0.03,0.24,0.09,0.33c0.03,0.09,0.1,0.15,0.15,0.19l0.03,0.03l0.01,0.09h0.1l0.03,0.03h0.02c0.02,0.01,0.03,0.01,0.04,0.01
	l0.05,0.03c0.15,0.06,0.3,0.09,0.45,0.09c0.02,0,0.04,0.01,0.06,0.01c0.04,0.01,0.09,0.02,0.12,0.02h0.19
	c0.03,0,0.08-0.01,0.12-0.02c0.02,0,0.05-0.01,0.07-0.01h0.18c0.05,0,0.12,0,0.21-0.03h0.18c0.27-0.03,0.54-0.1,0.8-0.15
	c0.13-0.03,0.26-0.06,0.36-0.08c0.07,0,0.15-0.02,0.24-0.05c0.04,0,0.08-0.01,0.12-0.01c0.03-0.01,0.07-0.01,0.1-0.01l0.05-0.01
	c0.07-0.02,0.14-0.05,0.19-0.05l0.05-0.01c0.07-0.02,0.13-0.05,0.19-0.05l0.07-0.01c0.31-0.08,0.62-0.15,0.87-0.23l0.23-0.07
	l-0.06-0.06c0.06-0.03,0.13-0.06,0.19-0.09l0.18-0.08c0.14-0.05,0.27-0.11,0.37-0.17c0.03-0.02,0.08-0.05,0.11-0.1
	c0.05-0.02,0.11-0.04,0.17-0.06c0.09-0.03,0.19-0.06,0.31-0.1c0.06-0.03,0.12-0.05,0.17-0.07c0.11-0.05,0.19-0.09,0.22-0.15
	c0.03-0.03,0.11-0.08,0.18-0.12c-0.05,0.06-0.09,0.12-0.13,0.19l-0.05,0.09c-0.05,0.1-0.1,0.22-0.14,0.38
	c-0.03,0.06-0.03,0.13-0.03,0.16v0.13c0,0.11,0.03,0.24,0.09,0.33c0.03,0.09,0.1,0.15,0.15,0.19l0.03,0.03l0.01,0.09h0.1l0.03,0.03
	h0.02c0.02,0.01,0.03,0.01,0.04,0.01l0.05,0.03c0.15,0.06,0.3,0.09,0.45,0.09c0.02,0,0.04,0.01,0.07,0.01
	c0.04,0.01,0.09,0.02,0.12,0.02h0.19c0.03,0,0.08-0.01,0.12-0.02c0.02,0,0.05-0.01,0.06-0.01h0.19c0.05,0,0.12,0,0.21-0.03h0.18
	c0.27-0.03,0.54-0.1,0.8-0.15c0.13-0.03,0.26-0.06,0.37-0.08c0.07,0,0.15-0.02,0.24-0.05c0.04,0,0.08-0.01,0.12-0.01
	c0.03-0.01,0.06-0.01,0.1-0.01l0.04-0.01c0.07-0.02,0.14-0.05,0.19-0.05l0.05-0.01c0.07-0.02,0.14-0.05,0.19-0.05l0.07-0.01
	c0.31-0.08,0.62-0.15,0.87-0.23l0.24-0.07l-0.06-0.06c0.06-0.03,0.13-0.06,0.19-0.09l0.19-0.08c0.14-0.06,0.27-0.11,0.36-0.17
	c0.03-0.02,0.08-0.05,0.11-0.1c0.06-0.02,0.11-0.04,0.17-0.06c0.1-0.03,0.19-0.06,0.31-0.1c0.06-0.03,0.12-0.05,0.17-0.07
	c0.03-0.02,0.06-0.03,0.09-0.05c-0.08,0.08-0.15,0.16-0.24,0.26c-0.17,0.26-0.31,0.51-0.41,0.76c-0.2,0.51-0.26,1.07-0.17,1.66
	l0,0.14l0.02,0.07c0,0.05,0.02,0.08,0.03,0.11l0.14,0.51c0.03,0.05,0.05,0.11,0.08,0.17l0.07,0.15c0,0.04,0.02,0.06,0.02,0.07
	l0.15,0.34c0.26,0.44,0.61,0.86,1.04,1.23c0.48,0.36,0.94,0.61,1.38,0.76c0.43,0.17,0.89,0.28,1.48,0.38
	c0.44,0.07,0.91,0.11,1.47,0.11c0.48,0,0.96-0.03,1.44-0.08c0.48-0.05,0.96-0.13,1.4-0.21c0.41-0.07,0.79-0.15,1.19-0.24l0.22-0.05
	c0.35-0.1,0.87-0.25,1.52-0.45c0.02,0.03,0.05,0.06,0.06,0.07c0.07,0.12,0.16,0.23,0.23,0.33l0.05,0.07
	c0.09,0.09,0.16,0.19,0.21,0.28l0.03,0.04c0.08,0.07,0.12,0.12,0.19,0.21c0.03,0.04,0.07,0.07,0.13,0.1l0.11,0.1l0.01-0.01
	c0.28,0.33,0.55,0.62,0.83,0.88c0.39,0.39,0.82,0.74,1.22,0.98c0.02,0.01,0.04,0.03,0.06,0.04c0.03,0.02,0.07,0.05,0.1,0.07
	c0.03,0.02,0.08,0.04,0.09,0.05l0.2,0.11c0.03,0.02,0.06,0.02,0.09,0.02l0.04,0.03c0.03,0.02,0.08,0.04,0.09,0.05l0.06,0.04h0.04
	l0.1,0.06h0.06c0.02,0,0.03,0.01,0.05,0.02c0.04,0.02,0.08,0.05,0.13,0.05c0.29,0.1,0.51,0.14,0.56,0.14h0.21
	c0.05,0,0.07,0,0.09,0.01l0.25,0.02c0.27,0,0.64,0,1.12-0.08c0.22-0.02,0.44-0.08,0.68-0.14l0.19-0.05c0.32-0.08,0.68-0.22,1.05-0.4
	c0.83-0.39,1.68-0.95,2.53-1.68c0.37-0.31,0.8-0.69,1.2-1.09c0.27-0.27,0.53-0.55,0.77-0.82c0.12-0.13,0.24-0.26,0.37-0.4
	c0.41-0.51,0.69-0.86,0.9-1.15c0.1-0.15,0.21-0.3,0.3-0.4l0.03-0.06c0.01-0.03,0.03-0.06,0.05-0.09c0.02-0.02,0.03-0.04,0.04-0.06
	c0.01-0.02,0.03-0.03,0.04-0.05c0.01-0.01,0.02-0.02,0.02-0.03l0.02-0.03c0.11-0.19,0.14-0.26,0.09-0.34l-0.05-0.07l-0.09,0
	c-0.09,0-0.13,0.07-0.18,0.17c-0.01,0.01-0.01,0.02-0.02,0.02c-0.01,0.01-0.02,0.03-0.03,0.03l-0.04,0.02l-0.02,0.04
	c-0.02,0.05-0.04,0.09-0.09,0.14c-0.03,0.04-0.07,0.09-0.1,0.15c-0.05,0.07-0.1,0.14-0.17,0.23c-0.15,0.19-0.33,0.4-0.45,0.53
	l-0.02-0.02c-0.49,0.63-1.07,1.28-1.78,1.98c-0.74,0.71-1.37,1.24-1.98,1.67c-0.36,0.23-0.73,0.47-1.1,0.65
	c-0.38,0.21-0.77,0.36-1.16,0.47c-0.36,0.12-0.74,0.2-1.18,0.26c-0.38,0.03-0.77,0-1.16-0.08c-0.37-0.05-0.72-0.16-1.12-0.36
	c-0.36-0.15-0.7-0.39-1.01-0.61l-0.49-0.43l-0.32-0.3c-0.05-0.05-0.06-0.07-0.08-0.09l-0.03-0.04c-0.31-0.29-0.57-0.63-0.82-0.94
	c-0.06-0.11-0.13-0.21-0.2-0.31c-0.05-0.08-0.11-0.16-0.19-0.28c0,0,0,0,0,0c0.22-0.07,0.46-0.15,0.69-0.23
	c0.13-0.05,0.26-0.1,0.39-0.16c0.22-0.09,0.45-0.18,0.69-0.27l0.33-0.14c0.27-0.12,0.55-0.23,0.83-0.36
	c0.74-0.33,1.66-0.75,2.59-1.24c0.47-0.25,0.94-0.51,1.37-0.77c0.48-0.26,0.96-0.56,1.43-0.85l0.7-0.47
	c0.07-0.04,0.13-0.08,0.19-0.12c0.06-0.03,0.11-0.07,0.18-0.11c0.07-0.04,0.13-0.08,0.19-0.12c0.06-0.04,0.12-0.07,0.19-0.12
	l0.08-0.06c0.44-0.33,0.9-0.65,1.37-1c0.94-0.68,1.9-1.49,2.84-2.41c0.87-0.82,1.75-1.72,2.7-2.75c0.91-1.04,1.71-2.08,2.41-3.07
	c0.79-1.1,1.47-2.17,2.07-3.29c0.29-0.56,0.56-1.15,0.8-1.75c0.28-0.69,0.47-1.28,0.59-1.85c0.05-0.3,0.1-0.62,0.13-0.96
	C129.81,6.96,129.79,6.64,129.76,6.31z M96.24,21.24L96.24,21.24l-0.01,0L96.24,21.24z M92.93,21.76c0.45-0.19,0.9-0.34,1.29-0.45
	c0.13-0.03,0.26-0.05,0.39-0.08c-0.19,0.08-0.39,0.16-0.61,0.24c-0.45,0.16-0.89,0.31-1.27,0.47c-0.29,0.11-0.55,0.21-0.82,0.32
	C92.25,22.07,92.59,21.89,92.93,21.76z M90.49,23.2C90.49,23.2,90.48,23.2,90.49,23.2l-0.03,0.01C90.47,23.2,90.47,23.2,90.49,23.2z
	 M89.38,21.24L89.38,21.24L89.38,21.24L89.38,21.24z M85.92,21.94c-0.29,0.11-0.55,0.21-0.82,0.32c0.32-0.19,0.66-0.37,1-0.5
	c0.45-0.19,0.9-0.34,1.29-0.45c0.13-0.03,0.26-0.05,0.39-0.08c-0.19,0.08-0.39,0.16-0.61,0.24 M50.39,22.52l-0.73,0.57
	c-0.21,0.15-0.41,0.31-0.63,0.44c-0.26,0.17-0.46,0.29-0.68,0.42c-0.22,0.14-0.42,0.23-0.65,0.31c-0.07,0.04-0.15,0.06-0.21,0.08
	l-0.05,0.02c-0.09,0.02-0.18,0.02-0.23,0.02h-0.06c-0.01,0-0.02-0.01-0.03-0.01v-0.03c0-0.04,0.02-0.07,0.03-0.12l0.02-0.03
	c0.02-0.09,0.05-0.18,0.12-0.28c0.01-0.02,0.02-0.03,0.02-0.04c0.01-0.02,0.03-0.04,0.04-0.07c0.18-0.27,0.36-0.51,0.55-0.7
	c0.07-0.03,0.13-0.05,0.17-0.07c0.09-0.05,0.21-0.1,0.15-0.23c0,0,0,0,0-0.01c0.23-0.22,0.48-0.43,0.7-0.58
	c0.03-0.02,0.06-0.03,0.1-0.06c0.03-0.02,0.06-0.03,0.08-0.05l0.02-0.02l0.08-0.02l0.04-0.04l0.12-0.06
	c0.09-0.03,0.17-0.07,0.26-0.09l0-0.02c0.07,0,0.1,0.01,0.15,0.03c0.02,0.01,0.03,0.02,0.05,0.03c0.01,0.01,0.02,0.01,0.03,0.02
	L49.89,22c0.07,0.12,0.17,0.1,0.19,0.1l0.11-0.04l0.13,0.26l0.06,0.13V22.52z M105.17,28.78c-0.15,0.05-0.31,0.09-0.47,0.13h0
	c-1.1,0.31-2.23,0.52-3.37,0.63c-0.54,0.05-1.1,0.06-1.74,0.03c-0.62-0.05-1.18-0.17-1.7-0.34c-0.02-0.01-0.04-0.02-0.07-0.03
	l-0.05-0.02c-0.06-0.03-0.11-0.05-0.18-0.08l-0.16-0.08l-0.04-0.02c-0.01,0-0.03-0.01-0.05-0.02l-0.07-0.05
	c-0.22-0.11-0.41-0.24-0.57-0.37l-0.13-0.13l-0.04-0.03c0,0-0.02-0.02-0.03-0.02c-0.02-0.02-0.05-0.05-0.08-0.07v-0.04l-0.12-0.08
	l-0.05-0.08c-0.01-0.02-0.02-0.05-0.04-0.07l-0.19-0.27c-0.05-0.11-0.11-0.22-0.18-0.31c-0.12-0.23-0.19-0.47-0.23-0.63l-0.03-0.11
	l-0.03-0.11c-0.01-0.02-0.01-0.05-0.01-0.12l-0.03-0.1v-0.05c0-0.03-0.01-0.08-0.02-0.12c0-0.02-0.01-0.04-0.01-0.06
	c0-0.44,0.12-0.86,0.34-1.23c0.21-0.29,0.44-0.51,0.71-0.69c0.16-0.08,0.34-0.15,0.5-0.21c0.11-0.05,0.22-0.08,0.34-0.1
	c0.06-0.02,0.11-0.03,0.17-0.04h0.14c0.05,0,0.1-0.02,0.13-0.03h0.58c0.04,0.01,0.09,0.02,0.15,0.03c0.04,0,0.09,0.01,0.16,0.03
	c0.07,0,0.13,0.01,0.21,0.03l0.09,0.02c0.05,0,0.07,0,0.1,0.01l0.08,0.02c0.02,0.01,0.05,0.02,0.09,0.03l0.14,0.05l0.07,0.01
	c0.03,0.01,0.06,0.02,0.08,0.02c0.06,0.02,0.12,0.04,0.17,0.06c0.04,0.02,0.07,0.03,0.09,0.03c0.01,0,0.02,0.01,0.03,0.01v0.09
	c0,0.05,0.01,0.09,0.02,0.12c0,0.02,0.01,0.03,0.01,0.04v0.13c0,0.05,0,0.1,0.02,0.15v0.2L99.92,25c0-0.01-0.02-0.02-0.02-0.03
	l0.06,0c0.01,0.1,0.03,0.19,0.05,0.29l0.01,0.1c0,0,0,0,0,0c0,0.03,0.01,0.06,0.01,0.09v0.01l0,0.03c0.02,0.11,0.04,0.22,0.08,0.33
	c0.02,0.09,0.05,0.17,0.07,0.24c0.01,0.04,0.02,0.09,0.04,0.14l0.04,0.09c0,0.01,0,0.02,0.01,0.03c0.05,0.15,0.11,0.31,0.2,0.46
	c0,0.01,0,0.02,0.01,0.02c0.02,0.06,0.05,0.1,0.07,0.14c0,0,0,0.01,0.01,0.02c0.01,0.02,0.02,0.05,0.05,0.09
	c0.01,0.02,0.02,0.05,0.03,0.07l0.02,0.14l0.14,0l0.02-0.12h0.15c0-0.05-0.02-0.08-0.03-0.11c0,0,0,0-0.01-0.01
	c-0.01-0.02-0.02-0.03-0.03-0.05h0v0c-0.05-0.1-0.1-0.2-0.15-0.33c-0.03-0.06-0.05-0.12-0.08-0.18l0.02-0.01
	c-0.07-0.15-0.12-0.32-0.17-0.5c-0.03-0.1-0.05-0.2-0.07-0.31c-0.02-0.1-0.04-0.2-0.06-0.28c-0.04-0.31-0.07-0.62-0.07-0.92
	c0.19,0.09,0.38,0.19,0.57,0.3c0.37,0.2,0.7,0.41,0.97,0.61c0.02,0.02,0.05,0.04,0.08,0.06c0.01,0.01,0.02,0.02,0.03,0.02l0.03,0.03
	c0.01,0,0.02,0.02,0.03,0.02c0.02,0.02,0.05,0.06,0.09,0.07c0.07,0.04,0.15,0.1,0.19,0.14c0.09,0.09,0.17,0.14,0.24,0.19
	c0.08,0.08,0.14,0.14,0.21,0.19l0.08,0.07c0.24,0.22,0.47,0.42,0.69,0.64l0.05,0.05l0.06-0.07l-0.03,0.07
	c0.02,0.01,0.06,0.04,0.14,0.1c0.02,0.01,0.03,0.02,0.04,0.03c0.03,0.03,0.08,0.07,0.14,0.11c0.03,0.03,0.06,0.06,0.09,0.09
	c0.01,0.01,0.02,0.02,0.03,0.03c0.04,0.06,0.1,0.12,0.16,0.15c0.33,0.36,0.79,0.86,1.23,1.39
	C105.34,28.73,105.26,28.76,105.17,28.78z M128.47,7.33c-0.03,0.4-0.09,0.73-0.18,1.03c-0.14,0.62-0.39,1.29-0.73,2
	c-0.3,0.68-0.64,1.33-1.02,1.93l0.02,0.01c-0.01,0.03-0.03,0.08-0.07,0.15c-0.34,0.57-0.74,1.17-1.18,1.78
	c-0.46,0.63-0.98,1.32-1.56,2.03c-0.14,0.18-0.29,0.36-0.43,0.53l-0.06,0.07c-0.1,0.12-0.13,0.19-0.15,0.24
	c-0.62,0.7-1.05,1.18-1.47,1.6c-0.74,0.77-1.52,1.52-2.34,2.26c-0.43,0.38-0.82,0.72-1.26,1.05c-0.21,0.17-0.43,0.33-0.64,0.5
	c-0.22,0.17-0.44,0.33-0.64,0.5c-0.4,0.29-0.86,0.6-1.37,0.92c-0.47,0.31-0.94,0.6-1.42,0.89c-1.04,0.63-1.99,1.16-2.92,1.63
	c-1.01,0.51-2.05,0.98-3.1,1.39c-0.51,0.19-1.06,0.39-1.63,0.59l-0.1-0.15c-0.06-0.07-0.11-0.13-0.16-0.19
	c-0.1-0.12-0.19-0.24-0.28-0.33c-0.07-0.09-0.14-0.19-0.22-0.29c-0.07-0.09-0.14-0.18-0.22-0.29c-0.08-0.08-0.15-0.16-0.23-0.24
	c-0.08-0.09-0.16-0.17-0.24-0.26c-0.31-0.34-0.63-0.68-0.98-1.01c-0.72-0.67-1.5-1.24-2.29-1.7c-0.37-0.22-0.76-0.42-1.17-0.6
	c0-0.03,0.01-0.07,0.02-0.1c0.02-0.07,0.03-0.14,0.04-0.2c0.12-0.54,0.32-1.09,0.57-1.63c0.19-0.38,0.4-0.79,0.68-1.2
	c0.02-0.04,0.05-0.08,0.09-0.13c0.03-0.05,0.07-0.1,0.09-0.13c0.03-0.04,0.06-0.08,0.09-0.12c0.04-0.06,0.07-0.11,0.13-0.17
	c0.04-0.05,0.08-0.11,0.12-0.17c0.09-0.14,0.19-0.28,0.3-0.41c0.62-0.79,1.22-1.49,1.84-2.12c1.33-1.44,2.7-2.77,4.07-3.97
	c1.5-1.28,2.98-2.41,4.52-3.47c1.69-1.15,3.29-2.07,4.88-2.84l0.09-0.04V6.65c0.03-0.02,0.06-0.03,0.1-0.05
	c0.44-0.21,0.87-0.39,1.27-0.57c0.06-0.02,0.12-0.03,0.17-0.06c0.05-0.02,0.09-0.03,0.17-0.06c0.05-0.02,0.1-0.04,0.14-0.06
	c0.06-0.02,0.12-0.05,0.14-0.06c0.1-0.03,0.22-0.06,0.32-0.1c0.11-0.03,0.22-0.06,0.33-0.11l0.62-0.18c0.11-0.03,0.22-0.06,0.33-0.1
	c0.1-0.03,0.21-0.06,0.31-0.09c0.12-0.02,0.22-0.05,0.33-0.08c0.12-0.03,0.23-0.05,0.36-0.08c0.21-0.05,0.44-0.1,0.72-0.17
	c0.03-0.02,0.05-0.03,0.08-0.05c0.01-0.01,0.02-0.01,0.03-0.02c0.04,0,0.09-0.01,0.12-0.02c0.04,0,0.08-0.01,0.12-0.01l0.05-0.01
	c0.03-0.01,0.07-0.02,0.11-0.02c0.05-0.01,0.09-0.02,0.13-0.03c0.05,0,0.1-0.01,0.14-0.01c0.04-0.01,0.08-0.01,0.13-0.01l0.06-0.02
	c0.09-0.05,0.16,0,0.26-0.04c0.08,0,0.18,0,0.26-0.03h0.28c0.2-0.03,0.38-0.03,0.56-0.03c0.41,0,0.76,0.03,1.09,0.1
	c0.3,0.05,0.6,0.15,0.92,0.33c0.3,0.18,0.49,0.35,0.62,0.57c0.07,0.1,0.12,0.22,0.17,0.36c0.06,0.15,0.1,0.29,0.12,0.41v0
	C128.52,6.69,128.52,7.02,128.47,7.33z"/>
</svg>
